<svg xmlns="http://www.w3.org/2000/svg" width="48" height="48" viewBox="0 0 512 512"><path fill="#FCBF95" d="M134.9,262.2c0.1-2.7,0.1-5.3,0.2-8c0,0,0-0.1,0-0.1c-0.6-2.2-1.5-4.4-2.3-5.7c-0.9-1.4-0.2-0.6-1.1-1.4c-0.2-0.1-0.3-0.2-0.3-0.3c-0.1,0-0.2-0.1-0.3-0.1c-0.1,0-0.2,0-0.5,0.1c-1.4,0.5-0.4,0.1-0.8,0.4c-0.6,0.4-1.2,0.8-1.8,1.2c-0.1,0.1-0.1,0.1-0.2,0.1c0,0-0.1,0.1-0.2,0.2c-0.4,0.4-0.7,0.7-1.1,1.1c-0.6,0.7-1.2,1.3-1.7,2c-1.5,1.9-2,2.6-3.2,4.7c-2.3,4-4.3,8.3-5.9,12.7c-1.4,4-2.7,8.9-3.2,13.5c-0.3,2.2-0.4,3.2-0.2,5.7c0.1,1.9,0.3,3.4,0.6,4.3c0.7,2.2,0.4,1.9,1.8,3.6c-0.6-0.7,0.9,0.6,0.5,0.3c0.4,0.2,0.7,0.4,1.1,0.6c1.9,0.5,2.5,0.5,5,0.1c2-0.3,4.4-1.2,6.5-2c1.8-0.7,3.4-0.5,4.6,0.3c0.6-2.3,1.4-4.5,2.3-6.8c-0.4-0.2-0.8-0.4-1.2-0.8c-6.7-5.4-6.4-12.4-6.4-20.2C127.4,263.3,131.7,261.3,134.9,262.2z"/><path fill="#D6E5E5" d="M331.5 184.9c-5.3-3.2-11.1-6.3-17.2-7.7-.8-.1-1.7-.2-2.6-.5-3.5-1-4.7-4.1-4.1-6.8-1.1 0-2.1 0-3.2 0-.8 1.4-1.6 2.7-2.3 4.1-.6 1.3-1.3 2.5-1.6 3.9-.1.3-.1.6-.1.8 4.3.7 8.8.6 13 1.5 5.5 1.3 7.1 4.9 10.9 8.4.6.6 1.5 1.1 2.4 1.1-.1-.1 1.3-.6 1.5-.8 1-.6 2-1.2 2.9-1.8.2-.1.3-.2.4-.3.4-.4.9-.8 1.4-1.1C332.5 185.5 332 185.2 331.5 184.9zM325.9 241.7c-1.1-6.4-11.5-11.9-17.6-10.1-8.2 2.5-8 11.6-8 18.7 0 1.5-.5 2.7-1.3 3.6 2.5 1.3 5.5 1.8 8.5 1.7C315.3 255.4 327.5 251.4 325.9 241.7z"/><path fill="#FCBF95" d="M294.5,199.1c7.7-2.7,15.9-3,23.7-1.3c-1.1-0.9-2.2-1.9-3.1-3.1c-2-2.6-2.6-3.4-5.5-3.8c-6.1-0.8-17.2,0.4-19.5-7.2c-1.4-4.6-0.3-8.9,1.6-12.9c-3.5,0.3-7,0.5-10.5,0.6c-6,0.1-13.3,0.3-18.3-3.6c-3-2.3-4-5.4-3.8-8.6c-7.5,0.4-15,1.6-22,4.2c-3.8,1.4-7,3.5-10.3,5.7c0.5-0.1,1.1-0.1,1.6-0.1c8.5,0.7,11.8,9.6,11.9,17c0.1,2.7-2,6-5.1,5.9c-4.2-0.2-7.8-1-11.7-2.5c-1.2-0.4-2.7-1-4-0.5c-0.3,0.1-2.3,1.4-1.3,0.5c-3.1,2.9-5.9,6.2-9.1,9.1c-3.1,2.8-7.9,6.7-12.4,4.3c-0.6-0.3-1.2-0.7-1.7-1.2c-6.1,6.2-12.8,11.9-20.3,16.3c-2.8,1.7-7.3,0.9-8.3-2.7c-0.6-2.2-0.8-4.3-0.6-6.3c-1-0.6-1.8-1.4-2.4-2.7c-1.5-3.5-2.6-7.3-3-11.1c-2.8,3.7-5,7.6-5.9,11.9c-0.5,2.3-2,3.6-3.8,4.1c-3.4,17.8-4.8,35.8-5,53.9c1.3,0.2,2.6,0.9,3.5,2.3c3.9,5.9,7.8,12.2,12.7,17.5c1.2-3.3,5.9-4.1,8.8-2c9.7,6.9,20.9,5.7,31.2,1.1c7.9-3.6,14.7-9.2,23.1-11.3c9.9-2.6,25.4-5,32.6,3.4c0.1-1,0.5-2.1,1.3-3.1c4.7-5.6,10.2-10.9,16.5-13.7c-0.8-0.4-1.4-1.1-2-2.1c-2.9-5.1-13.8-3.8-18.9-2.6c-4.3,1-15.9,4.1-16.1,9.6c-0.2,4.1-4,6.1-7.1,5.6c-13.3,9.5-41.5-10.3-30.9-30c2.6-4.8,6.6-8.6,11.3-11.2c-4.5-1.3-8.7-5.3-8.6-10.2c-1.6,0.8-3.1,1.7-4.5,2.8c-5.6,4.4-11.7-4.8-6.2-9.1c10.1-7.9,23.3-8.4,35.7-8.4c2.8,0,5.9,1.9,5.9,5.1v1.5c0,2.8-1.9,5.9-5.1,5.9c-0.5,0-1.1,0-1.6,0c0.5,1.4,0.6,3,0.2,4.4c-0.5,1.5-1.3,2.8-2.4,4c2.5-0.2,5.1-0.1,7.5,0.4c5.6,1,11,3.5,13.4,9c0.2,0.5,0.4,0.9,0.5,1.4c0.4-0.1,0.7-0.2,1.1-0.2c2.1-0.2,4.3,1.1,5.3,2.9c10.3-8.8,26.9-10.2,37.3-0.8c0.9-4,2.6-7.7,5.6-10.8c2.6-2.7,5.9-4.4,9.4-5.1c-2-1.3-3.2-3.4-2.7-5.8c0.6-3.3,2-5.7,3.8-7.5c-2.9,0.2-5.8,0.7-8.6,1.7C291.4,211.8,287.8,201.5,294.5,199.1z"/><path fill="#D6E5E5" d="M223.1,171.4c-1.2,0.8-2.4,1.6-3.7,2.3c-4.8,2.7-12.5,7-18.1,3.7c-4.9-3-5.3-7.2-6.1-11.8c-3.3,1.8-6.6,3.9-9.7,6.2c1.5,2.7,0.9,6.5-2.8,7.7c-4.4,1.4-9.7,4-10.8,9c-0.8,3.5-0.3,6.8,0.7,10.1c0.6-0.4,1.2-0.7,1.9-1c2.9-1.2,5.3,0.1,6.4,2.3c5-4.3,9.5-9.1,13.8-14.3c3-3.6,8.5-1.5,9.5,2.4c1.6-1.6,3.1-3.3,4.7-4.9c2.9-2.9,6.5-5.5,10.7-5.6c1.1,0,2.2,0.1,3.3,0.3C221.5,176.2,221.7,173.5,223.1,171.4z"/><path fill="#FCBF95" d="M286.1,256.6c-1.5-2.8-2.1-6.1-1.7-10.2c-4.8-4.9-11.4-5.9-17.3-4c6.5,0.5,12.6,2.7,15.7,8.3c1.3,2.3,0.8,4.5-0.4,6.2C283.7,256.7,284.9,256.6,286.1,256.6z"/><path fill="#D6E5E5" d="M251.3,287.3c-0.3-0.5-0.5-1-0.7-1.6c-1.6-5.8-8.9-5.1-13.7-4.4c-6.8,0.9-12.3,2.7-18.1,6.1c-8.6,5.1-18,10-28.1,11.1c-5.7,0.6-10.9,0-15.9-1.7c1.4,5.2,3.6,10.1,7.2,14.2c5.1,5.8,12.8,8.4,20.3,9.1c16.6,1.6,39.2-1.8,43.7-20.8c0.4-1.7,1.4-2.9,2.6-3.5C246.6,292.6,247.9,288,251.3,287.3z"/><path fill="#FCBF95" d="M382.3,229.3c-0.2-6.3-1.7-12.1-3.9-18c-2.4-0.4-4.8-1.1-7.2-2c-5.2-2-10.2-4.5-16-4c-2.7,0.2-4.5-1.2-5.3-3.1c-2.8-0.2-5.4-0.7-8.1-2c-2.2-1-3.1-2.9-3-4.7c-3,3-8.1,5-11.9,5.2c3.2,1.4,6.2,3.3,9,5.5c4.4,3.5,0.5,10.6-4.7,9.5c-1.3-0.3-3.6-0.8-6.1-1.3c-0.2,1-0.6,2-1.2,3.1c-1.2,2-2.8,3.5-4.6,4.5c0.1,0,0.1,0,0.2,0.1c13.8,4.8,23.5,21.1,13.1,33.8c-5,6.1-14.3,9.8-23.3,10.4c0.4,0.3,0.8,0.6,1.2,0.8c5.9,4,11.9,8.2,18.1,11.7c0.1-1.4,0.7-2.9,2.1-4c9.3-7.8,18.5-15.7,28.5-22.5c2.6-1.8,5.8-0.9,7.6,1.5c0.5,0.7,2.6,3.6,3.6,2.9c1.7-1.1,2.9-2.8,3.9-4.6c2.4-4.5,4.1-9.3,5-14.3c0.2-1.2,0.7-2.2,1.5-2.9c-0.1-0.5-0.1-1.1,0-1.6C381.2,231.9,381.6,230.6,382.3,229.3z"/><path fill="#D6E5E5" d="M370.6,159.6c-1.6-4,2.2-7.5,5.8-7.2c-10.7-23.7-32-42.5-55.6-52.6c-4.9-2.1-3.4-10.4,2-10.4c2.7,0,5.5,0,8.2-0.2C325.7,81,309.7,79,301.7,79c-14,0.1-29.7,5.2-40.9,14.4c-0.4,1.2-1,2.2-1.9,3c-1.4,1.1-3.1,1.9-4.5,3c-3.1,2.5-6.8,0.4-8.1-2.6c-18.2-0.4-35.8,2.7-53.5,7c-10.4,2.6-26,5.4-32.6-3.6c-6,5.1-10.3,12.3-13.7,19.3c-4.9,10-8.7,20.7-10.5,31.7c-1.4,8.6-1.8,17.5-1.1,26.2c0.5,6.2,0.9,19.1,7.8,22c0.8,0.3,1.4,0.8,1.9,1.3c0.2,0,0.3-0.1,0.5-0.1c3.8-10.6,12.8-19.6,20.8-26.8c9.3-8.3,19.5-16.4,31.1-21.2c2.9-1.2,5.9,0.7,7,3.4c1.4,3.2,1.6,6.6,2.1,10c0.2,1.1,0.4,1.4,0.2,1.4c0.6-0.1,1.1-0.2,1.8-0.4c5.4-2,10.2-5.6,14.9-8.9c12-8.5,28.5-10.2,42.8-10.3c4.1,0,7.4,4,5.4,7.9c-0.7,1.3-1.1,2.1-1.3,3.4c0.2,0.1,0.4,0.2,0.6,0.3c-0.1-0.1,2,0.5,2.6,0.6c6.2,0.8,13,0,19.4-0.4c10.6-0.8,29-3.8,34.5,8.4c0.3,0.6,0.4,1.3,0.3,2.1c4,1.8,7.9,4.1,11.4,6.4c7,4.7,14,10,17.9,17.7c5,0,9.7,1.3,14.4,3.2c3.1,1.2,6.6,3,10,3.4C381.1,186.5,375.8,172.7,370.6,159.6z"/><path fill="#FCBF95" d="M416.2,277c-5,1.7-11.7,3.9-17.6,4.5c0.7,2.8,0.5,6.1,0.3,8.7c0,0.1,0,0.3,0,0.4c4,0.3,8.8,0.6,11.7-1.2c2.4-1.5,3.8-3.7,5.6-5.8c0.6-0.7,1.3-1.4,1.9-2.1C417.4,280,416.8,278.5,416.2,277z"/><path fill="#D6E5E5" d="M232.1,235.7c-7.3-1.3-15.9,0.7-20.5,7c-3.9,5.4-2,12.3,3.6,15.7c2.6,1.6,9.9,5.4,11.2,0.5c0.7-2.8,3-4.1,5.2-4.2c1.4-1.8,3.2-3.4,5.2-4.7c0,0,0-0.1,0-0.1C236.8,244.7,238.7,236.9,232.1,235.7z"/><path fill="#EF4823" d="M460.2,241.9c0,0-0.2-0.7-0.4-1.3c-0.6,0.5-1.3,1.2-1.9,1.8c-2.6,2.9-8.2,2.3-9.3-1.8c-0.9-3.2-2-7.7-5.2-9.4c-3.2-1.7-6.7-1.9-10.2-1.9c-2.3,0-4-1.2-4.9-2.8c-0.4-0.1-0.7-0.2-1.1-0.3c-5.3-1-5.3-7.4-2.1-9.9c0-0.5,0-0.8,0-0.7c-0.2-1.9-0.3-3.7-0.4-5.6c-0.1-3.1-0.2-6.2-0.2-9.3c0.1-6.7,0.5-13.3,1.2-20c1.4-13.6,3.7-27.1,5.1-40.7c1-10.5,3.1-22.3-0.1-32.6c-2.4-7.6-6.9-13.9-12.9-19.1c-8.1-7-17.6-12.2-27-17.2c-13.1-7-26.7-13.2-40.4-19.2c-26.3-11.6-54.5-24-83.4-26.6c-27.4-2.4-49.5,11.1-70,27.9c-12.2,10.1-23.5,21.2-33.6,33.3c2.4,0.3,4.5,2,4.8,4.9c1.1,9.7,24.3,1.1,29.6-0.3c17.6-4.7,36.3-6.1,54.5-5c13.7-11.9,33.6-18.7,51.3-18c15.6,0.7,37.8,6.4,40.1,24.8c0.2,1.9-0.9,4-2.5,5.1c23.6,14.5,43.3,37.3,50.2,64c1,3.9-1.9,7.6-5.6,7.3c0.7,2,1.3,3.9,1.8,5.9c2.9-0.5,6.4,1,7,4.7c1.8,11.3,9.9,26.9,21,31.5c1.6,0.7,3,2.7,3,4.5v1.5c0,0.2,0,0.3,0,0.5c1.7,1.4,3.2,3.3,4.2,5.7c2.8,6.5-7.6,10.1-10.4,3.6c-1.6-3.6-8.9-1-11.3,0c-1.9,0.8-4.3,2-6.3,3.5c5,1.8,9.3,5.2,9.5,11.1c0.4,7.8-4.5,13.6-7.1,20.6c-0.8,2.2-1.6,4.6-1.9,7c0,0.3,0.1,0.7,0.1,1.1c0.3,0,2-0.1,2.8-0.2c6.4-1,12.7-3.5,19-5.1c3.2-0.8,5.6,0.5,7,3.4c0.5,1.1,1,2.2,1.4,3.4c4.5,2,5.3,5.5,4.3,9.3c0.3,0.5,0.6,0.9,1,1.3c2.8,3.4,4.9,1.2,6.5-1.9c4.3-8.2,5.2-18.2,10.5-25.8c2.2-3.2,6.6-1.8,8.7,0.6c0.2,0.2,1,0.9,1.3,1.2c0,0,0.1,0,0,0c0,0,0,0,0,0c1.4-2.6,2.2-5.9,2.3-8.7C460.6,245.8,460.5,243.8,460.2,241.9z"/><path fill="#D6E5E5" d="M314.4,282.8c-7-4.6-13.9-10.1-21.4-13.8c-0.5-0.2-1-0.5-1.4-0.7c-0.1,0-0.6-0.1-0.8-0.2c-3.2-0.6-6.5-1-9.7,0.2c-5.8,2.2-9.8,6.9-13.7,11.5c-2,2.4-4.7,2.3-6.8,1c0.1,0.3,0.2,0.7,0.3,1c0.9,3.2-1,5.7-3.4,6.8c6.6,2.7,12.1,7,17.7,11.5c6.7,5.5,14.4,11,23.5,11.1c14.3,0.1,25.6-8.3,35.6-17.9C326.8,290.9,319.2,286,314.4,282.8z"/><path fill="#FCBF95" d="M391.9,202.9c0,1.3-0.1,2.6-0.2,4c-0.1,1.2-1,2.5-2,3.3c1,3,1.9,5.9,2.5,9c2.9-1.8,6.2-3.2,9.4-4C397.8,211.8,394.6,207.5,391.9,202.9z"/><path fill="#D6E5E5" d="M393.6,242.5c-0.4-1.2-1.9-1.9-3.5-2.2c-1.4,7.7-4.4,16.8-9.9,22.5c-6.1,6.2-12.9,5.8-18.5,1.2c-8.3,6-16.1,12.6-23.9,19.2c1.9,0.7,3.8,1.3,5.2,1.2c0.2,0,0.4,0,0.6,0c1.4-1.4,2.7-2.8,4.1-4.2c4.5-4.5,11.3,0.3,9.1,6.1c-1.7,4.5-4.4,7-7.7,8.2c-13.2,13.5-28.4,28-47.8,27.9c-10.7-0.1-19.9-3.7-28.4-10.1c-5.2-3.9-10.1-8.8-16-11.9c0,0.3-0.1,0.7-0.1,1c-6,25.3-33.6,32.2-56.6,29.5c-10.5-1.2-20.5-5.5-27.3-13.8c-3.9-4.7-6.4-10.2-8.2-15.9c-9.8-6.5-16.6-16.1-23.1-25.8c-1.1,0.3-2.2,0.3-3.2,0.1c0.4,1.6,1.1,3,2.6,4.2c1.9,1.6,2.3,3.6,1.7,5.4c2.3,1.3,3.9,4.1,2.6,7.2c-7,16.8-5.7,37.1-1.3,54.5c3.3,12.9,8.4,26,16.4,36.8v-0.3h0c0-0.5,0-1,0.1-1.5c0.4-6.2,10.9-5.5,10.9,0.6v5.2c0.7,6.8,4.1,13.9,7.2,19.6c4.3,7.8,9.2,15.2,14.9,22c12,14.2,27.2,23.3,43.6,31.2c1-4.2,1.9-8.5,2.9-12.7c0.7-2.8,3.4-5.1,6.4-4.3c15.4,3.7,21.4,21,23.3,36.3c2.9-3.2,5.3-6.9,7.8-10.3c4.9-6.7,10.1-13.4,17.3-17.6c3-1.8,7-0.8,8.3,2.7c1.4,3.8,1.7,7.9,2,12c0.1,1.1,0.1,3.6,0.4,5.7c19.9-15.5,41.3-33.6,50.6-57.3c2-5,10.4-3.3,10.4,2v1.8c4.4-8.3,6.9-17.7,8.7-26.9c2.9-15.4,3.9-31.1,5.3-46.7c1-11.2,3.4-22.1,5.1-33.2c1-6.5,2-13,2.5-19.6c0.2-2.2,0.3-4.5,0.1-6.7c0-0.3-0.4-2.4-0.1-1.4c0-0.1-0.1-0.2-0.1-0.3c0,0,0,0-0.1-0.1c-1.6-1.9-1.5-4-0.5-5.5c-0.9-1-1.5-2.2-2-3.7c-2.4-8.3,2.1-17,5.7-24.2C391.9,248.6,394.4,244.7,393.6,242.5z"/><path d="M467,231.5c-3.3-3.3-7.1-3.2-10.6-1.5c-1.5-2.8-3.4-5.4-6-7.3c-4.1-2.9-8.9-3.9-13.7-4.2c-0.1-1.2-0.3-2.4-0.4-3.7c-0.4-3.7-0.5-7.5-0.6-11.2c-0.1-8.2,0.6-16.3,1.5-24.5c1.7-15.5,4.4-30.9,5.5-46.4c0.8-11.5,1.6-22.3-2.9-33.3c-3.7-9.1-10.5-16.4-18.1-22.4c-8.6-6.8-18.5-12-28.2-17.1c-13.4-7.1-27.3-13.3-41.2-19.4c-26.2-11.5-54.1-23.1-82.9-26c-12.9-1.3-25.8,0.1-38,4.5c-14.5,5.2-27,14.5-39,24.1c-23.1,18.5-42.6,40.7-58.3,65.8c-1.9,3-0.3,5.8,2.2,7c-5.4,11-9.4,23.2-11.2,35.4c-1.6,10.4-1.7,21.3-0.4,31.7c1.1,9.3,3.7,22.1,13.4,26.3c0.7,0.3,1.4,0.4,2.1,0.5c-1.7,9.1-2.9,18.3-3.7,27.5c-3.3-1.8-7.3-2.1-11.9,0.4c-8.6,4.7-13.9,15.4-17.4,24.1c-4.1,10.2-7.2,22.1-4.7,33.1c2.6,11.5,12.9,15,23.4,12.6c1.6-0.4,3.2-0.9,4.7-1.5c-1.9,13.8-0.5,28.1,2.5,41.7c4.5,20,13.9,40.4,29.3,54.3c0.6,0.6,1.3,0.9,1.9,1.1c4.5,11.6,12.2,22.4,19.4,31.3c14.7,18.1,33.9,29.3,54.9,38.8c3.4,1.5,7-0.3,7.8-3.9c1-4.2,1.9-8.4,2.9-12.6c3.5,3.2,5.6,8.3,7,12.6c2.3,7,3.2,14.5,3.3,21.8c0,4.5,5.2,5.9,8.6,4.1c11.8-6.4,17-19.9,26.2-29.1c0.5,7.2,0.3,14.7,7.3,19c1.6,1,4.1,0.7,5.5-0.4c17.2-13.2,36.2-28.3,49-46.8c1.6,3.1,6.5,3.4,9.1,0.9c11.6-11.1,17-27,20.3-42.3c3.6-16.6,4.5-33.7,6-50.6c1-11.9,3.7-23.7,5.5-35.5c0.5-3.1,0.9-6.2,1.3-9.3c8.6,0.1,16.5,0.2,23.1-6.4c1-1,2.2-2.3,3.4-3.7c4.5,4.1,10.7,5.3,16.4,2.1c5.4-3,8.1-10.2,10-15.6c1.1-3.1,2.2-7.5,3.4-11.1c3.3,1.6,7,1.8,10.4-1c4.7-4,6.3-10.5,6.7-16.5C471.8,243.1,471.4,236,467,231.5z M134.9,262.2c-3.2-0.9-7.5,1.1-7.6,5.5c-0.1,7.8-0.3,14.8,6.4,20.2c0.4,0.3,0.8,0.6,1.2,0.8c-0.9,2.2-1.6,4.5-2.3,6.8c-1.2-0.8-2.8-1.1-4.6-0.3c-2.1,0.8-4.5,1.7-6.5,2c-2.5,0.4-3.1,0.4-5-0.1c-0.4-0.2-0.8-0.4-1.1-0.6c0.4,0.2-1.1-1-0.5-0.3c-1.5-1.7-1.2-1.4-1.8-3.6c-0.3-0.9-0.5-2.3-0.6-4.3c-0.1-2.5,0-3.4,0.2-5.7c0.5-4.5,1.8-9.5,3.2-13.5c1.6-4.4,3.5-8.6,5.9-12.7c1.2-2.1,1.7-2.9,3.2-4.7c0.5-0.7,1.1-1.4,1.7-2c0.3-0.4,0.7-0.7,1.1-1.1c0.1-0.1,0.1-0.1,0.2-0.2c0.1,0,0.1-0.1,0.2-0.1c0.6-0.5,1.2-0.9,1.8-1.2c0.4-0.3-0.5,0.1,0.8-0.4c0.2-0.1,0.4-0.1,0.5-0.1c0.1,0.1,0.2,0.1,0.3,0.1c0.1,0.1,0.2,0.2,0.3,0.3c0.9,0.8,0.1-0.1,1.1,1.4c0.8,1.3,1.7,3.5,2.3,5.7c0,0,0,0.1,0,0.1C135.1,256.9,135,259.6,134.9,262.2z M134.9,177.4c-0.7-8.7-0.4-17.6,1.1-26.2c1.8-11,5.6-21.7,10.5-31.7c3.4-6.9,7.7-14.1,13.7-19.3c6.6,8.9,22.2,6.1,32.6,3.6c17.7-4.4,35.3-7.4,53.5-7c1.3,3,5,5.1,8.1,2.6c1.4-1.1,3.1-1.9,4.5-3c0.9-0.7,1.6-1.8,1.9-3c11.2-9.1,26.8-14.3,40.9-14.4c8-0.1,24,2,29.4,10.1c-2.7,0.2-5.5,0.2-8.2,0.2c-5.4,0-6.9,8.3-2,10.4c23.6,10.1,44.9,29,55.6,52.6c-3.6-0.3-7.4,3.2-5.8,7.2c5.2,13.1,10.5,26.9,10.4,41.2c-3.5-0.4-6.9-2.2-10-3.4c-4.7-1.9-9.4-3.2-14.4-3.2c-3.9-7.7-10.9-13-17.9-17.7c-3.5-2.4-7.4-4.6-11.4-6.4c0-0.7,0-1.5-0.3-2.1c-5.5-12.2-23.9-9.2-34.5-8.4c-6.4,0.5-13.2,1.3-19.4,0.4c-0.6-0.1-2.7-0.7-2.6-0.6c-0.2-0.1-0.4-0.2-0.6-0.3c0.2-1.3,0.7-2.1,1.3-3.4c2-4-1.3-8-5.4-7.9c-14.3,0.1-30.8,1.8-42.8,10.3c-4.7,3.3-9.5,6.8-14.9,8.9c-0.7,0.2-1.2,0.4-1.8,0.4c0.2-0.1-0.1-0.3-0.2-1.4c-0.5-3.4-0.7-6.8-2.1-10c-1.1-2.6-4.1-4.6-7-3.4c-11.6,4.8-21.8,12.9-31.1,21.2c-8.1,7.2-17.1,16.2-20.8,26.8c-0.2,0-0.3,0.1-0.5,0.1c-0.5-0.5-1.1-1-1.9-1.3C135.9,196.5,135.4,183.6,134.9,177.4z M380.9,234.9c-0.7,0.7-1.2,1.6-1.5,2.9c-0.9,5-2.6,9.8-5,14.3c-1,1.8-2.2,3.5-3.9,4.6c-1,0.7-3.1-2.2-3.6-2.9c-1.8-2.4-5-3.2-7.6-1.5c-10,6.8-19.2,14.7-28.5,22.5c-1.4,1.1-2,2.6-2.1,4c-6.3-3.5-12.2-7.7-18.1-11.7c-0.4-0.3-0.8-0.6-1.2-0.8c9.1-0.6,18.4-4.3,23.3-10.4c10.4-12.8,0.7-29-13.1-33.8c-0.1,0-0.1,0-0.2-0.1c1.9-1,3.5-2.4,4.6-4.5c0.6-1,1-2.1,1.2-3.1c2.5,0.4,4.8,1,6.1,1.3c5.2,1,9-6.1,4.7-9.5c-2.8-2.2-5.8-4-9-5.5c3.8-0.2,8.9-2.2,11.9-5.2c-0.1,1.9,0.8,3.7,3,4.7c2.7,1.2,5.3,1.8,8.1,2c0.8,1.9,2.6,3.3,5.3,3.1c5.8-0.5,10.7,2,16,4c2.4,1,4.8,1.6,7.2,2c2.3,5.9,3.7,11.7,3.9,18c-0.6,1.3-1.1,2.6-1.4,3.9C380.8,233.8,380.8,234.3,380.9,234.9z M248.5,295.7c-1.2,0.7-2.2,1.8-2.6,3.5c-4.5,19.1-27,22.4-43.7,20.8c-7.5-0.7-15.2-3.3-20.3-9.1c-3.6-4.1-5.8-9-7.2-14.2c5,1.7,10.3,2.3,15.9,1.7c10.1-1.1,19.5-6,28.1-11.1c5.8-3.4,11.4-5.2,18.1-6.1c4.8-0.6,12.2-1.4,13.7,4.4c0.2,0.6,0.4,1.2,0.7,1.6C247.9,288,246.6,292.6,248.5,295.7z M225.3,272.4c-8.5,2.2-15.2,7.8-23.1,11.3c-10.4,4.6-21.5,5.8-31.2-1.1c-3-2.1-7.6-1.2-8.8,2c-4.9-5.3-8.8-11.6-12.7-17.5c-1-1.4-2.2-2.2-3.5-2.3c0.2-18.1,1.6-36.2,5-53.9c1.8-0.4,3.3-1.7,3.8-4.1c0.9-4.2,3.1-8.2,5.9-11.9c0.4,3.8,1.5,7.6,3,11.1c0.5,1.3,1.4,2.2,2.4,2.7c-0.2,2,0,4.1,0.6,6.3c1,3.6,5.4,4.4,8.3,2.7c7.5-4.4,14.2-10.1,20.3-16.3c0.5,0.4,1,0.8,1.7,1.2c4.5,2.4,9.3-1.5,12.4-4.3c3.2-2.9,6-6.1,9.1-9.1c-1,0.9,1-0.4,1.3-0.5c1.3-0.5,2.8,0.1,4,0.5c3.9,1.4,7.5,2.3,11.7,2.5c3.1,0.1,5.1-3.2,5.1-5.9c-0.2-7.4-3.4-16.3-11.9-17c-0.6,0-1.1,0-1.6,0.1c3.3-2.2,6.5-4.3,10.3-5.7c7-2.7,14.5-3.8,22-4.2c-0.1,3.2,0.9,6.4,3.8,8.6c5,3.9,12.3,3.7,18.3,3.6c3.5-0.1,7-0.3,10.5-0.6c-1.9,4.1-3,8.3-1.6,12.9c2.4,7.6,13.4,6.4,19.5,7.2c2.9,0.4,3.5,1.2,5.5,3.8c0.9,1.2,1.9,2.3,3.1,3.1c-7.8-1.7-16-1.3-23.7,1.3c-6.7,2.3-3.1,12.7,3.6,10.4c2.8-1,5.7-1.5,8.6-1.7c-1.8,1.8-3.2,4.2-3.8,7.5c-0.5,2.4,0.7,4.5,2.7,5.8c-3.5,0.8-6.8,2.4-9.4,5.1c-3,3.1-4.7,6.8-5.6,10.8c-10.4-9.4-27-8-37.3,0.8c-1-1.9-3.3-3.1-5.3-2.9c-0.4,0-0.8,0.1-1.1,0.2c-0.2-0.5-0.3-1-0.5-1.4c-2.4-5.5-7.7-8-13.4-9c-2.5-0.5-5-0.6-7.5-0.4c1.1-1.2,1.9-2.5,2.4-4c0.5-1.5,0.4-3-0.2-4.4c0.6,0,1.1,0,1.6,0c3.2,0,5.1-3.1,5.1-5.9v-1.5c0-3.2-3.1-5.1-5.9-5.1c-12.3,0-25.5,0.5-35.7,8.4c-5.6,4.4,0.6,13.5,6.2,9.1c1.4-1.1,2.9-2,4.5-2.8c0,4.9,4.1,8.9,8.6,10.2c-4.7,2.6-8.7,6.5-11.3,11.2c-10.6,19.8,17.6,39.6,30.9,30c3.1,0.5,7-1.5,7.1-5.6c0.2-5.5,11.7-8.6,16.1-9.6c5.1-1.2,16-2.5,18.9,2.6c0.5,1,1.2,1.6,2,2.1c-6.4,2.9-11.8,8.1-16.5,13.7c-0.9,1-1.3,2.1-1.3,3.1C250.6,267.4,235.2,269.8,225.3,272.4z M185.5,171.8c3.1-2.3,6.4-4.4,9.7-6.2c0.7,4.5,1.2,8.8,6.1,11.8c5.6,3.4,13.2-0.9,18.1-3.7c1.3-0.7,2.5-1.5,3.7-2.3c-1.4,2-1.6,4.8-0.2,6.6c-1.1-0.2-2.1-0.3-3.3-0.3c-4.3,0.1-7.9,2.7-10.7,5.6c-1.6,1.6-3.1,3.3-4.7,4.9c-0.9-4-6.5-6-9.5-2.4c-4.3,5.1-8.8,9.9-13.8,14.3c-1.1-2.2-3.4-3.6-6.4-2.3c-0.7,0.3-1.3,0.6-1.9,1c-1-3.3-1.5-6.6-0.7-10.1c1.1-5.1,6.3-7.6,10.8-9C186.4,178.3,186.9,174.5,185.5,171.8z M311.8,176.7c0.9,0.2,1.8,0.4,2.6,0.5c6.1,1.4,11.8,4.5,17.2,7.7c0.5,0.3,1,0.6,1.5,1c-0.6,0.3-1.1,0.7-1.4,1.1c-0.1,0.1-0.3,0.2-0.4,0.3c-1,0.6-1.9,1.2-2.9,1.8c-0.2,0.1-1.5,0.6-1.5,0.8c-0.9,0-1.7-0.5-2.4-1.1c-3.8-3.5-5.4-7.1-10.9-8.4c-4.3-1-8.7-0.9-13-1.5c0-0.2,0.1-0.5,0.1-0.8c0.3-1.4,1-2.7,1.6-3.9c0.7-1.4,1.5-2.8,2.3-4.1c1.1,0,2.1,0,3.2,0C307,172.6,308.2,175.8,311.8,176.7z M325.9,241.7c1.7,9.7-10.6,13.7-18.3,14c-3,0.1-6.1-0.4-8.5-1.7c0.8-0.9,1.3-2.1,1.3-3.6c0-7.2-0.2-16.2,8-18.7C314.4,229.8,324.8,235.3,325.9,241.7z M282.9,250.7c-3.1-5.6-9.2-7.8-15.7-8.3c5.9-1.9,12.5-0.8,17.3,4c-0.4,4,0.2,7.4,1.7,10.2c-1.3,0-2.5,0.1-3.7,0.3C283.7,255.3,284.1,253,282.9,250.7z M236.8,249.9c-2,1.4-3.8,2.9-5.2,4.7c-2.3,0.1-4.5,1.4-5.2,4.2c-1.3,5-8.6,1.1-11.2-0.5c-5.5-3.3-7.4-10.3-3.6-15.7c4.5-6.3,13.2-8.3,20.5-7c6.6,1.2,4.7,9,4.7,14.1C236.8,249.8,236.8,249.8,236.8,249.9z M261,282c-0.1-0.3-0.2-0.7-0.3-1c2,1.3,4.7,1.3,6.8-1c3.9-4.6,7.9-9.3,13.7-11.5c3.1-1.2,6.5-0.8,9.7-0.2c0.2,0,0.6,0.2,0.8,0.2c0.5,0.2,1,0.4,1.4,0.7c7.6,3.7,14.4,9.2,21.4,13.8c4.8,3.1,12.4,8,20.1,10.7c-10,9.6-21.3,18-35.6,17.9c-9.1-0.1-16.7-5.6-23.5-11.1c-5.6-4.6-11.1-8.8-17.7-11.5C260,287.7,261.9,285.2,261,282z M391,250.5c-3.6,7.2-8.1,15.9-5.7,24.2c0.4,1.5,1.1,2.7,2,3.7c-1.1,1.6-1.2,3.6,0.5,5.5c0,0,0.1,0.1,0.1,0.1c0,0.1,0,0.2,0.1,0.3c-0.3-1.1,0.1,1.1,0.1,1.4c0.2,2.2,0,4.5-0.1,6.7c-0.5,6.6-1.5,13.1-2.5,19.6c-1.7,11.1-4.1,22-5.1,33.2c-1.4,15.6-2.4,31.2-5.3,46.7c-1.7,9.2-4.3,18.6-8.7,26.9v-1.8c0-5.3-8.5-7-10.4-2c-9.2,23.7-30.7,41.9-50.6,57.3c-0.2-2.1-0.3-4.6-0.4-5.7c-0.3-4-0.6-8.1-2-12c-1.2-3.5-5.2-4.5-8.3-2.7c-7.2,4.3-12.4,11-17.3,17.6c-2.5,3.4-4.9,7.1-7.8,10.3c-1.8-15.3-7.8-32.6-23.3-36.3c-3-0.7-5.8,1.5-6.4,4.3c-1,4.2-2,8.5-2.9,12.7c-16.4-7.9-31.6-17-43.6-31.2c-5.7-6.8-10.7-14.2-14.9-22c-3.1-5.7-6.5-12.8-7.2-19.6v-5.2c0-6.2-10.5-6.8-10.9-0.6c0,0.5,0,1-0.1,1.5h0v0.3c-8-10.9-13-23.9-16.4-36.8c-4.5-17.3-5.7-37.6,1.3-54.5c1.3-3.1-0.3-5.9-2.6-7.2c0.6-1.8,0.2-3.8-1.7-5.4c-1.5-1.2-2.2-2.6-2.6-4.2c1,0.3,2.2,0.2,3.2-0.1c6.5,9.7,13.2,19.3,23.1,25.8c1.7,5.8,4.3,11.2,8.2,15.9c6.8,8.3,16.8,12.6,27.3,13.8c23,2.7,50.6-4.2,56.6-29.5c0.1-0.4,0.1-0.7,0.1-1c5.8,3.1,10.8,8,16,11.9c8.4,6.4,17.7,10,28.4,10.1c19.4,0.1,34.7-14.4,47.8-27.9c3.2-1.2,6-3.7,7.7-8.2c2.3-5.8-4.5-10.6-9.1-6.1c-1.3,1.3-2.7,2.7-4.1,4.2c-0.2,0-0.4,0-0.6,0c-1.5,0-3.4-0.5-5.2-1.2c7.8-6.5,15.6-13.2,23.9-19.2c5.6,4.6,12.5,5,18.5-1.2c5.5-5.6,8.5-14.8,9.9-22.5c1.6,0.4,3,1,3.5,2.2C394.4,244.7,391.9,248.6,391,250.5z M389.7,210.2c1.1-0.8,1.9-2.2,2-3.3c0.1-1.3,0.1-2.6,0.2-4c2.7,4.6,6,8.9,9.7,12.3c-3.3,0.8-6.5,2.2-9.4,4C391.5,216.1,390.7,213.2,389.7,210.2z M416.2,283.6c-1.9,2-3.2,4.3-5.6,5.8c-2.9,1.8-7.6,1.5-11.7,1.2c0-0.1,0-0.3,0-0.4c0.1-2.5,0.3-5.8-0.3-8.7c5.9-0.5,12.6-2.8,17.6-4.5c0.6,1.5,1.2,3,1.9,4.5C417.5,282.2,416.8,282.9,416.2,283.6z M460.5,247.8c-0.1,2.8-0.8,6.1-2.3,8.7c0,0,0,0,0,0c0-0.1,0-0.1,0,0c-0.3-0.3-1.2-1-1.3-1.2c-2.1-2.4-6.5-3.8-8.7-0.6c-5.3,7.7-6.2,17.6-10.5,25.8c-1.6,3.1-3.7,5.3-6.5,1.9c-0.4-0.4-0.7-0.9-1-1.3c1-3.7,0.2-7.2-4.3-9.3c-0.4-1.1-0.9-2.3-1.4-3.4c-1.4-2.9-3.9-4.2-7-3.4c-6.3,1.6-12.5,4.1-19,5.1c-0.7,0.1-2.5,0.2-2.8,0.2c-0.1-0.4-0.1-0.8-0.1-1.1c0.2-2.4,1-4.8,1.9-7c2.5-7,7.4-12.8,7.1-20.6c-0.3-5.9-4.5-9.3-9.5-11.1c1.9-1.6,4.4-2.7,6.3-3.5c2.4-1,9.8-3.6,11.3,0c2.8,6.5,13.2,2.9,10.4-3.6c-1-2.4-2.5-4.2-4.2-5.7c0-0.1,0-0.3,0-0.5v-1.5c0-1.8-1.4-3.8-3-4.5c-11-4.6-19.1-20.2-21-31.5c-0.6-3.8-4.1-5.3-7-4.7c-0.6-2-1.2-3.9-1.8-5.9c3.7,0.3,6.6-3.4,5.6-7.3c-7-26.7-26.6-49.6-50.2-64c1.7-1.1,2.8-3.1,2.5-5.1c-2.3-18.4-24.5-24.1-40.1-24.8c-17.7-0.8-37.6,6.1-51.3,18c-18.2-1.1-36.9,0.4-54.5,5c-5.3,1.4-28.4,9.9-29.6,0.3c-0.3-2.9-2.4-4.6-4.8-4.9c10.1-12.1,21.4-23.3,33.6-33.3c20.5-16.8,42.5-30.3,70-27.9c28.9,2.5,57.1,15,83.4,26.6c13.6,6,27.2,12.3,40.4,19.2c9.4,5,18.9,10.2,27,17.2c6,5.2,10.5,11.5,12.9,19.1c3.3,10.3,1.2,22.1,0.1,32.6c-1.4,13.6-3.6,27.1-5.1,40.7c-0.7,6.6-1.1,13.3-1.2,20c-0.1,3.1,0,6.2,0.2,9.3c0.1,1.9,0.2,3.8,0.4,5.6c0,0,0,0.3,0,0.7c-3.3,2.5-3.2,8.9,2.1,9.9c0.4,0.1,0.7,0.2,1.1,0.3c0.9,1.6,2.6,2.8,4.9,2.8c3.5,0,7,0.3,10.2,1.9c3.2,1.7,4.3,6.2,5.2,9.4c1.1,4.1,6.7,4.7,9.3,1.8c0.6-0.7,1.3-1.3,1.9-1.8c0.2,0.6,0.4,1.3,0.4,1.3C460.5,243.8,460.6,245.8,460.5,247.8z"/></svg>