<svg xmlns="http://www.w3.org/2000/svg" width="48" height="48" viewBox="0 0 512 512"><path fill="#FEBF10" d="M191.1,266.7c-14.6-1.3-23.1,14.5-19.9,27.1c0.4,1.4,0.2,2.7-0.3,3.8c3.6,5.8,9.9,8.5,17.8,7.6c8.5-1,18.2-5.9,21.2-14.5C213.7,280.2,201.1,267.6,191.1,266.7z"/><path fill="#F6851F" d="M254.8,221.3c-5.1-1.8-16.1-0.9-15.7,6.5c0.1,2.3-0.9,3.9-2.4,4.9c1.4,1.5,3.4,2.8,5.6,3.8c5.1,2.2,12.6,3.7,16.9,0.2C264,232.7,261.2,223.5,254.8,221.3z"/><path fill="#FEBF10" d="M239.9 391.8c-3.1-20.1-42.4-17.7-38.3 2.5.4 1.9-.2 3.4-1.2 4.3 3.9 9 12.9 15.6 22.8 16.2C235.8 415.5 241.6 402.8 239.9 391.8zM245.3 152.4c-6.3 2.7-11.1 10-10.7 16.9 0 .4 0 .8 0 1.2 1.1 1.1 3 1.4 5.6.7 5.2-1.3 10.4-4.5 12.3-9.8C254.1 156.6 250.8 150 245.3 152.4z"/><path fill="#EF4823" d="M267,66.5c0.2-10.6,8.8-15.8,16.2-21.9c-11.8-1.6-26.1,3-34.2-7.6c-4.9-6.4-6.9-14.3-8.7-22.2c-4.5,7.4-8,15.6-7.3,23.9c0.3,2.7-1.2,4.5-3.1,5.3c0,0.7-0.1,1.4-0.4,2.1c-1.9,5-13,6.4-17.3,7.6c-3.8,1-7.5,2-11.3,3c4.4,2.9,9,5.7,12.7,9.3c1.3,0.7,2.4,1.7,2.8,3.1c1,1.2,1.8,2.5,2.5,3.9c6.2,12.1-4.2,24-3.6,36.1c10.2-3.3,18.3-12.6,28-17c12.2-5.5,23.9-1,36.1,0.8c-1.8-3.4-4.1-6.6-5.8-9.6C271.1,78.5,266.9,72.3,267,66.5z"/><path fill="#FEBF10" d="M312.7,141c-2.4-7.4-18.6-6-20.9,0.8c1.8,0.2,3.3,1.3,3.9,3.6c1.4,5.3,5.1,7.8,10.4,5.6C310,149.5,314.2,145.5,312.7,141z"/><path fill="#14B6B9" d="M208.8 144.6c-1.8-6.6-9.1-10.8-15.8-10.8-7.9 0-11.8 4.1-10.6 12 .3 1.8-.2 3.1-1.2 4.1C184.7 160.5 212.7 158.5 208.8 144.6zM278.2 314.9c-3.9 2.2-8 5.2-10.3 9.2-.4.7-.7 1.3-1 1.9 1.5.7 2.6 2.1 2.5 4.4-.3 7.9 4.5 10.2 11.9 8 6-1.8 15.1-7 14.8-14.3C295.8 314.3 286.1 310.5 278.2 314.9z"/><path fill="#F6851F" d="M123.9,418.8c0.2,1.6-0.2,2.9-1,3.9c1.2,4.7,4.5,8.2,10.2,8.2c5.7,0.1,12.9-2,15.3-7.8C154.5,408.2,122.1,406.4,123.9,418.8z"/><path fill="#3AB37C" d="M443.5,367.4c-4.6-6.1-8.7-13.9-15.5-17.8c-6.9,4.8-15.2,7.5-23.1,9.8c-6.8,2-10.4-8.4-3.6-10.4c8.4-2.5,19-5.2,24.9-12.3c5.8-7.1,5.3-17,4.5-25.6c-0.3-3,2.1-5.7,5.1-5.9c10.1-0.7,19-4.7,25.1-12.9c4.6-6.2,7.4-13.6,9.2-21.1c-22-5.6-44.5-10.4-65-20.3c-20.1-9.7-36.2-24.3-46.1-44c-2.5,1.6-5.2,2.6-7.9,3.2c4.9,5.3,7.4,13.3,7.3,20.4c-0.2,15.2-12,27.2-27.5,27.2c-9.2,0-17.2-3.8-21.5-10.4c-0.4-0.2-0.8-0.5-1.1-0.8c-3.4-3-5.9-7.4-5.7-12c0.6-13.1,12.4-25,24.7-29c-0.5-3.4,1.9-7.3,6.3-6.6c7.7,1.4,18.3,3,23.1-5c4.9-8.1,5.8-18.3,14.3-24c7-4.6,17.9-7.2,19.9-16.4c1.4-6.5,4.3-16.3-4.3-18.6c-8.1-2.2-16.6-1.8-24.6-4.2c-13.5-3.9-25.7-10.6-37.2-18.5c-10.5-7.3-20.8-15.2-30.3-23.8c-5-4.5-10.2-9.5-13.9-15.2c4.2,8.6,10.5,16.2,12.5,25.7c0.6,2.7-2.3,6-5.1,5.9c-15-0.3-30.3-9-44.2-0.3c-10.4,6.5-19.6,15.3-32.3,16.8c-2.4,0.3-4.9-1.4-5.6-3.7c-2.3-7.2-1.6-14.3,0.6-21.4c1-3.3,3.2-8,3.7-12.3c-5.1,9.1-10.3,18-16.2,26.6c-3.4,5-7.1,9.7-11,14.2c2.9-1.3,6.3-1.9,10-1.8c12.1,0.3,25.4,8.1,26.8,21.1c3.4,30-51.2,31-49.9,4.2c0.1-1.4,0.6-2.5,1.3-3.4c-0.2-3.1,0.2-5.9,1-8.5c-2.2,2.2-4.5,4.4-6.8,6.6c-9.5,8.8-19.7,17.6-30.8,24.2c-8,4.8-17.1,8.8-24.2,15c2.7,3,5.7,5.5,9.4,7.2c4.1,1.9,9.1,4.3,13.5,3.5c4.7-0.9,9.4-0.6,11.5,4.5c1.4,3.2-0.3,9.9,2.4,11.8c5.9,4.2,15.9,3.4,22.6,2.3c1.9-0.3,3.8-0.7,5.6-1.2c0.2-0.3,0.3-0.7,0.5-1c1.7-3.2,5.1-3.5,7.6-2.2c0.3-0.2,0.7-0.4,1-0.6c-0.6-2.4,0.3-5.1,3.5-6c0.9-0.2,1.7-1,2.6-1.3c1.8-0.7,4.1-0.2,5.4,1.1c8.5,7.6-5,15.7-12.9,19c-15.7,29.5-33.3,59.1-64.4,74.4c-6.8,3.3-13.8,6.3-20.2,10.4c-4.4,2.8-9,5.6-8.2,11.2c1.7,12.6,19.8,16,30.1,14c4.2-0.9,7.1,4.5,5.4,7.9c-0.9,1.8-1.3,3.7-1.1,4.3c0.3,0.8,1.1,1.7,2.5,2.4c4.1,2.1,8.7,2.8,13.3,3.2c0.9-0.2,1.8-0.1,2.7,0.2c8.7,0.5,19.2,0.4,26.9-2.8c6.6-2.7,10.2,7.7,3.6,10.4c-5.8,2.4-17.5,3.9-29.2,3.4c-6,8-13,15.1-20.5,21.7c-6.9,6-14,12.7-22,17.3c-4.5,2.5-13.1,5.3-15.4,10.4c-2.4,5.4,3.9,14.7,6.9,19c17.3,25.4,52.5,36.7,79.8,20.5c3.1-1.9,6.9-0.7,8.3,2.7c2.9,7.4,11,11.8,18,14.7c7.9,3.3,16.9,5.7,25.5,5.8c12,0.1,23.4-5.2,33.6-11.1c5.4-3.2,9.8-6.7,14.5-10.8c3.3-2.9,7.1-5.6,11.6-6c12-1,20.1,8.4,30.7,12c5.8,2,12.9,1.4,18.9,1c5.8-0.5,12-0.7,17.5-2.4c15.5-4.7,37.9-14.5,41.1-32.4c0.5-2.9,3.6-5,6.4-4.3c26.6,6.3,53.6-8.4,61.3-34.3C453.8,379.2,448.2,373.7,443.5,367.4z M159.4,424.6c-3.1,10.8-14.4,17.8-25.5,17.3c-12.9-0.6-22.2-9-22.5-22.2c0-1.6,0.5-2.9,1.4-3.8c0.9-12,15.2-16.8,26.1-15.8C151.2,401.2,163.4,410.9,159.4,424.6z M323.6,139.7c3.9,22.3-31.5,32.7-38.1,9.9c-2.4-0.2-4.7-1.7-4.9-4.9C279.1,122.4,319.7,117.2,323.6,139.7z M224.8,161c2.8-9.3,10.2-17.6,19.5-19.7c12.4-2.8,22.3,10.3,19,22.1c-2.8,10-12.1,17.4-22.4,18.9c-10.7,1.5-19.2-5.5-18.8-16.5C222.2,163.5,223.3,161.9,224.8,161z M157.9,294.5c-0.5-2.3,0.4-4.3,1.8-5.6c-0.3-7.6,1.7-15,6.5-21.3c5.4-7,14.4-12.3,23.5-11.9c16.7,0.7,35.5,17.7,31.4,35.8C214.5,320.8,164.9,326.6,157.9,294.5z M250.9,398.5c-1.4,16.8-14,29.6-31.5,26.9c-16.4-2.5-29.1-15.6-31.8-31.8c-0.4-2.7,0.9-4.4,2.7-5.2c0.2-1.7,0.6-3.3,1.2-4.9c4.8-13.2,21.6-18,34.3-16.3C242,369.4,252.3,382.1,250.9,398.5z M236.7,246c-9.3-4.6-16.9-14.9-8.8-24.4c0.5-0.6,1.1-1.1,1.7-1.4c4.7-9.7,18.7-12.6,29.1-9c12.5,4.3,19,22.1,8.9,32.4C259.7,251.7,246.3,250.7,236.7,246z M258.9,336.7c-9.7-9.1,2.4-24.6,11.6-30c6.8-4,14.6-6.2,22.3-3.5c7.3,2.5,12.6,9.5,14,17C312,346.7,263.9,361.9,258.9,336.7z M317.5,319.8c-2.1-3.1-0.6-6.2,1.8-7.7c-1.3-12.8,6.9-24.7,19.1-30.1c14.8-6.5,30.1-1.5,36.8,13.3c6.9,15.2-0.6,31.3-16.1,37C343.9,338,326.7,333.4,317.5,319.8z M353.6,427.2c-7.6,1.6-16.2,0.4-22.5-4.5c-7-5.5-9-13.9-8.1-22.4c0-0.4,0.1-0.8,0.3-1.2c-2.3-8.5-2.7-17.4,0.9-25.6c4-9.1,11.5-14.6,21.2-16.4c17.6-3.2,40,6.3,39.3,26.9C384.1,402.5,373.1,423.1,353.6,427.2z"/><path fill="#F6851F" d="M364.9,370.1c-5.5-2.6-12.4-3.7-18.4-2.2c-18.5,4.8-15,25.5-8.4,39c1.2,2.5,0.4,4.5-1.2,5.7c4,4.2,11,5.4,17.5,3c11.6-4.3,19.5-18.9,19.4-30.9C373.7,378,371.2,373,364.9,370.1z"/><path fill="#FEBF10" d="M365.4,300.1c-1.9-4.3-4.5-8.3-9.5-9.4c-4.7-1-9.4-0.3-13.8,1.8c-9.4,4.5-14.5,14-10.4,23.9c0.5,1.1,0.5,2.1,0.4,3c6.3,4.6,14.8,5.8,22.5,3C364.3,318.8,369.9,310.1,365.4,300.1z"/><path fill="#F6851F" d="M346.4,224.2c-1.5-4.9-4.1-9.1-9.5-9.5c-4.3-0.3-9.1,2-12.6,4.5c-3.6,2.6-7.1,5.8-9.2,9.8c1.5,1.1,2.5,2.9,2.2,5.2c-1.4,9.8,8,13.5,16.5,12C344.7,244.5,349.6,234.5,346.4,224.2z"/><path d="M467.6,301.4c8.1-9.1,12-21.4,14.4-33.1c0.6-3.1-1.5-5.7-4.3-6.4C435.7,250.7,386,242.4,367,198c0.3-0.5,0.6-1,0.8-1.5c2.6-4.6,3.3-10.2,6.3-14.6c2-3,5.5-4.6,8.6-6.3c4.5-2.5,9-4.7,12.8-8.2c3.4-3.1,5.1-7.6,6.2-11.9c1.3-5.2,2.3-11.1,1.5-16.4c-2.6-18.9-26.7-15.6-40.1-19.5c-14-4.1-26.7-12.4-38.3-21c-9.7-7.2-19.5-14.8-28.1-23.4c-3.7-3.7-8.6-8.6-9.6-14c-0.3-1.8-1.3-3.1-2.6-3.8c4.4-3.8,9.6-7,13.2-11.6c2.3-2.9,1.5-6.7-1.7-8.6c-6.4-3.7-13.4-4.3-20.7-4.2c-4.5,0.1-13.7,1.7-17.2-2.2c-3.4-3.9-4.7-9.7-6-14.5c-1.5-5.5-2.6-11.1-4.4-16.5c-1.2-3.7-6.9-5.2-9.3-1.8c-8.2,11.6-17.3,25.6-16.4,40.5c-0.5,0.3-1,0.6-1.5,1.1c0,0-0.1,0-0.1,0.1c-1.4,0.5-2.8,1-4.2,1.4c-3.6,1.1-7.2,2.1-10.8,3.1c-6.2,1.7-12.4,3.3-18.7,4.8c-4.2,1.1-4.5,6.7-1.8,9.3c4,3.8,8.6,6.7,13.2,9.8c1.8,1.2,3.9,2.6,5.9,4.1c-6,11.1-12.2,22.1-19.3,32.5c-7.8,11.4-17.4,21.4-27.5,30.9c-9.1,8.6-19.2,16.7-29.9,23.1c-9.8,5.9-20.5,10.7-28.3,19.4c-1.6,1.8-1.9,4.7-0.4,6.7c4,5.4,8.5,9.8,14.3,13.2c4.8,2.8,12.4,6.2,18.1,6.1c1.1,0,2.2-0.1,3.4-0.3c0.3-0.1,0.7-0.1,1-0.2c0,1.1-0.2,2.4-0.1,3.2c0,1.8,0.5,3.7,1.1,5.4c1.6,4.9,7.2,7.6,11.7,9c6.7,2.1,14,2.3,21.1,1.4c-7,13-14.5,25.6-24.2,36.8c-6.8,7.8-14.6,14.3-23,20.2c-6.4,4.4-13.9,7.2-20.8,10.7c-6.4,3.2-13.3,6.9-17.9,12.6c-4.7,5.8-4.5,14.2-1.4,20.6c5.5,11.3,19.3,17.2,31.9,17.3c-0.2,8.7,7.8,13.6,18.4,15.8c-11.6,14-26.4,26.3-42.1,34.8c-6.6,3.6-13.3,8.2-14.5,16.2c-1.2,8.5,4.7,18.2,9.1,25c19.1,29.3,58.4,41.2,89.7,26.3c9.2,13.9,29.3,20,44.8,21.8c11.7,1.4,22.6-1.2,33.4-6c6.5-2.9,12.6-6.5,18.7-10.2c5-3,8.4-8.8,13.9-11c5.1-2,11.9,3.2,16,5.6c5.4,3.2,10.9,6.1,17.2,6.9c12.8,1.6,27.5,0.3,39.8-3.5c17.2-5.4,38.1-16.6,44.5-34.7c32.3,4.9,64-16,70.4-48.8c0.6-2.9-1.4-5.9-4.3-6.4c-15.8-2.8-20.5-21.9-32.5-31c5.3-7.5,6.3-17.1,5.8-26.3C451.9,313.7,460.7,309.1,467.6,301.4z M200.9,56.7c3.8-1,7.5-2,11.3-3c4.3-1.2,15.4-2.6,17.3-7.6c0.3-0.7,0.4-1.4,0.4-2.1c1.9-0.8,3.4-2.6,3.1-5.3c-0.8-8.3,2.8-16.5,7.3-23.9c1.9,7.9,3.8,15.8,8.7,22.2c8.1,10.6,22.3,5.9,34.2,7.6c-7.4,6.1-16,11.3-16.2,21.9c-0.1,5.8,4.1,12.1,6.8,16.9c1.7,3,4,6.3,5.8,9.6c-12.2-1.9-23.9-6.3-36.1-0.8c-9.7,4.4-17.8,13.6-28,17c-0.6-12.1,9.8-24,3.6-36.1c-0.7-1.4-1.6-2.7-2.5-3.9c-0.5-1.4-1.5-2.5-2.8-3.1C209.9,62.5,205.3,59.7,200.9,56.7z M182.4,145.8c-1.2-7.9,2.7-12,10.6-12c6.7,0,14,4.1,15.8,10.8c3.8,13.9-24.1,15.9-27.6,5.3C182.2,149,182.7,147.6,182.4,145.8z M435.7,305.2c-2.9,0.2-5.4,2.9-5.1,5.9c0.8,8.6,1.4,18.5-4.5,25.6c-5.9,7.1-16.4,9.8-24.9,12.3c-6.8,2-3.2,12.4,3.6,10.4c7.9-2.4,16.3-5,23.1-9.8c6.8,3.9,10.9,11.7,15.5,17.8c4.7,6.3,10.3,11.7,17.5,14.6c-7.7,25.8-34.8,40.6-61.3,34.3c-2.9-0.7-5.9,1.5-6.4,4.3c-3.2,18-25.6,27.8-41.1,32.4c-5.6,1.7-11.8,2-17.5,2.4c-6,0.5-13.1,1-18.9-1c-10.6-3.6-18.6-13.1-30.7-12c-4.5,0.4-8.3,3.1-11.6,6c-4.7,4.1-9.1,7.6-14.5,10.8c-10.2,5.9-21.6,11.2-33.6,11.1c-8.6-0.1-17.6-2.5-25.5-5.8c-6.9-2.9-15.1-7.3-18-14.7c-1.4-3.4-5.1-4.6-8.3-2.7c-27.3,16.2-62.5,4.9-79.8-20.5c-2.9-4.3-9.3-13.6-6.9-19c2.3-5,10.9-7.8,15.4-10.4c8-4.5,15.1-11.2,22-17.3c7.5-6.6,14.5-13.7,20.5-21.7c11.6,0.5,23.4-1.1,29.2-3.4c6.5-2.7,3-13.1-3.6-10.4c-7.7,3.2-18.2,3.3-26.9,2.8c-0.9-0.3-1.8-0.4-2.7-0.2c-4.5-0.4-9.2-1.1-13.3-3.2c-1.4-0.7-2.2-1.6-2.5-2.4c-0.2-0.6,0.2-2.5,1.1-4.3c1.7-3.4-1.1-8.8-5.4-7.9c-10.2,2.1-28.3-1.4-30.1-14c-0.8-5.6,3.9-8.4,8.2-11.2c6.4-4.1,13.4-7,20.2-10.4c31-15.4,48.7-45,64.4-74.4c7.9-3.3,21.4-11.4,12.9-19c-1.4-1.2-3.7-1.8-5.4-1.1c-0.9,0.4-1.7,1.1-2.6,1.3c-3.1,0.9-4.1,3.5-3.5,6c-0.3,0.2-0.7,0.4-1,0.6c-2.5-1.3-5.9-1.1-7.6,2.2c-0.2,0.3-0.3,0.7-0.5,1c-1.9,0.5-3.7,0.9-5.6,1.2c-6.7,1.1-16.7,1.9-22.6-2.3c-2.7-1.9-1-8.6-2.4-11.8c-2.2-5.1-6.8-5.3-11.5-4.5c-4.4,0.8-9.4-1.6-13.5-3.5c-3.7-1.7-6.8-4.2-9.4-7.2c7.1-6.3,16.1-10.3,24.2-15c11.1-6.6,21.3-15.4,30.8-24.2c2.3-2.2,4.6-4.4,6.8-6.6c-0.9,2.6-1.2,5.5-1,8.5c-0.7,0.9-1.2,2-1.3,3.4c-1.3,26.8,53.3,25.7,49.9-4.2c-1.5-13-14.8-20.7-26.8-21.1c-3.7-0.1-7,0.6-10,1.8c3.9-4.5,7.6-9.3,11-14.2c5.9-8.6,11.1-17.5,16.2-26.6c-0.5,4.2-2.7,8.9-3.7,12.3c-2.2,7.1-2.9,14.3-0.6,21.4c0.7,2.3,3.2,4,5.6,3.7c12.7-1.5,21.9-10.3,32.3-16.8c13.9-8.6,29.2,0,44.2,0.3c2.7,0.1,5.6-3.2,5.1-5.9c-1.9-9.5-8.3-17.1-12.5-25.7c3.7,5.8,8.9,10.8,13.9,15.2c9.5,8.6,19.8,16.5,30.3,23.8c11.5,8,23.7,14.6,37.2,18.5c8,2.3,16.5,2,24.6,4.2c8.6,2.3,5.7,12,4.3,18.6c-2,9.2-12.9,11.8-19.9,16.4c-8.5,5.6-9.4,15.9-14.3,24c-4.9,8-15.4,6.4-23.1,5c-4.4-0.8-6.8,3.2-6.3,6.6c-12.3,3.9-24,15.9-24.7,29c-0.2,4.6,2.3,9,5.7,12c0.4,0.3,0.8,0.6,1.1,0.8c4.3,6.6,12.3,10.4,21.5,10.4c15.5,0,27.3-11.9,27.5-27.2c0.1-7-2.4-15-7.3-20.4c2.7-0.6,5.4-1.6,7.9-3.2c9.9,19.7,26,34.3,46.1,44c20.5,9.9,43,14.7,65,20.3c-1.9,7.5-4.6,14.9-9.2,21.1C454.7,300.5,445.7,304.5,435.7,305.2z M315.2,229.1c2.1-4,5.5-7.3,9.2-9.8c3.5-2.5,8.3-4.8,12.6-4.5c5.4,0.4,8,4.5,9.5,9.5c3.2,10.3-1.7,20.3-12.6,22.1c-8.4,1.4-17.9-2.2-16.5-12C317.7,231.9,316.7,230.1,315.2,229.1z"/><path d="M258.8 211.2c-10.4-3.6-24.4-.7-29.1 9-.6.3-1.2.8-1.7 1.4-8.1 9.5-.5 19.8 8.8 24.4 9.6 4.8 23 5.7 31-2.4C277.8 233.3 271.3 215.5 258.8 211.2zM259.2 236.6c-4.3 3.5-11.8 2.1-16.9-.2-2.3-1-4.3-2.3-5.6-3.8 1.5-.9 2.6-2.6 2.4-4.9-.4-7.4 10.5-8.2 15.7-6.5C261.2 223.5 264 232.7 259.2 236.6zM375.3 295.4c-6.7-14.9-22-19.8-36.8-13.3-12.2 5.4-20.4 17.3-19.1 30.1-2.4 1.5-3.9 4.6-1.8 7.7 9.2 13.6 26.4 18.2 41.6 12.6C374.6 326.7 382.1 310.6 375.3 295.4zM354.6 322.3c-7.7 2.9-16.2 1.6-22.5-3 .2-.9.1-1.9-.4-3-4.2-9.9.9-19.5 10.4-23.9 4.3-2.1 9.1-2.8 13.8-1.8 5 1.1 7.5 5.1 9.5 9.4C369.9 310.1 364.3 318.8 354.6 322.3zM225.8 367.2c-12.7-1.7-29.4 3.1-34.3 16.3-.6 1.6-1 3.3-1.2 4.9-1.9.8-3.2 2.5-2.7 5.2 2.7 16.2 15.4 29.3 31.8 31.8 17.5 2.6 30.1-10.1 31.5-26.9C252.3 382.1 242 369.4 225.8 367.2zM223.2 414.8c-9.9-.6-18.9-7.2-22.8-16.2 1.1-.9 1.6-2.4 1.2-4.3-4.1-20.2 35.3-22.6 38.3-2.5C241.6 402.8 235.8 415.5 223.2 414.8zM323.6 139.7c-4-22.5-44.5-17.3-43 5 .2 3.1 2.5 4.7 4.9 4.9C292.1 172.4 327.5 161.9 323.6 139.7zM306.2 151c-5.3 2.2-9-.4-10.4-5.6-.6-2.3-2.2-3.4-3.9-3.6 2.3-6.8 18.5-8.2 20.9-.8C314.2 145.5 310 149.5 306.2 151zM244.3 141.2c-9.3 2.1-16.7 10.5-19.5 19.7-1.5.9-2.6 2.5-2.6 4.7-.5 11 8.1 18 18.8 16.5 10.3-1.4 19.5-8.8 22.4-18.9C266.5 151.6 256.7 138.4 244.3 141.2zM252.4 161.4c-1.8 5.3-7.1 8.5-12.3 9.8-2.7.7-4.5.4-5.6-.7 0-.4.1-.8 0-1.2-.4-6.9 4.4-14.2 10.7-16.9C250.8 150 254.1 156.6 252.4 161.4zM189.7 255.7c-9.1-.4-18 5-23.5 11.9-4.9 6.3-6.8 13.7-6.5 21.3-1.4 1.3-2.3 3.3-1.8 5.6 7 32.1 56.6 26.3 63.2-3C225.1 273.5 206.4 256.4 189.7 255.7zM210 290.8c-3 8.6-12.7 13.5-21.2 14.5-7.9 1-14.2-1.8-17.8-7.6.5-1.1.7-2.4.3-3.8-3.2-12.7 5.3-28.5 19.9-27.1C201.1 267.6 213.7 280.2 210 290.8zM306.8 320.1c-1.5-7.5-6.7-14.5-14-17-7.7-2.7-15.5-.5-22.3 3.5-9.2 5.5-21.2 20.9-11.6 30C263.9 361.9 312 346.7 306.8 320.1zM281.3 338.3c-7.4 2.2-12.2-.1-11.9-8 .1-2.3-1-3.7-2.5-4.4.3-.6.6-1.2 1-1.9 2.3-4 6.3-7 10.3-9.2 7.9-4.4 17.6-.5 18 9.1C296.4 331.3 287.3 336.5 281.3 338.3zM345.4 357c-9.7 1.8-17.2 7.3-21.2 16.4-3.6 8.2-3.2 17.2-.9 25.6-.1.4-.2.8-.3 1.2-.9 8.6 1.1 16.9 8.1 22.4 6.2 4.9 14.9 6.1 22.5 4.5 19.5-4 30.4-24.7 31.1-43.3C385.4 363.3 363 353.8 345.4 357zM354.3 415.6c-6.5 2.4-13.5 1.2-17.5-3 1.6-1.2 2.4-3.2 1.2-5.7-6.6-13.5-10.1-34.2 8.4-39 6-1.5 12.9-.4 18.4 2.2 6.3 2.9 8.8 7.9 8.8 14.6C373.8 396.7 366 411.3 354.3 415.6zM138.9 400.1c-11-1-25.3 3.8-26.1 15.8-.8.9-1.4 2.2-1.4 3.8.3 13.2 9.7 21.7 22.5 22.2 11.1.5 22.4-6.5 25.5-17.3C163.4 410.9 151.2 401.2 138.9 400.1zM148.4 423.1c-2.4 5.8-9.6 7.9-15.3 7.8-5.6-.1-9-3.5-10.2-8.2.8-.9 1.2-2.2 1-3.9C122.1 406.4 154.5 408.2 148.4 423.1z"/></svg>